<svg width="1442" height="418" viewBox="0 0 1442 418" fill="none" xmlns="http://www.w3.org/2000/svg">
<rect width="1440" height="418" fill="black" fill-opacity="0" transform="translate(1)"/>
<path d="M1 0C52 20.9078 191 67.1234 339 84.7234C524 106.723 772 113.277 971 158.213C1170 203.149 1194.5 214.383 1194.5 214.383C1288.5 242.936 1424.33 253.234 1441 253.234V418H1V0Z" fill="white"/>
<path d="M1 331.284C383.829 331.284 153.138 337.802 545.5 353.154C937.862 368.506 1025.41 339.84 1199.5 353.154C1413 369.482 1411.56 383.026 1441 388.143" stroke="#EDEDED"/>
<path d="M1 135.715C197.842 129.198 175.44 199.533 568.485 214.852C961.53 230.171 1021.69 291.411 1196.07 304.696C1409.95 320.988 1411.51 327.054 1441 332.161" stroke="#EDEDED"/>
</svg>
