<?xml version="1.0" encoding="utf-8"?>
<!-- Generator: Adobe Illustrator 22.0.1, SVG Export Plug-In . SVG Version: 6.00 Build 0)  -->
<svg version="1.1" id="Ebene_1" xmlns="http://www.w3.org/2000/svg" xmlns:xlink="http://www.w3.org/1999/xlink" x="0px" y="0px"
	 viewBox="0 0 1920 980" style="enable-background:new 0 0 1920 980;" xml:space="preserve">
<style type="text/css">
	.st0{fill:#1B243F;}
	.st1{opacity:0.3;}
	.st2{fill:#D3F2FF;}
</style>
<rect class="st0" width="1920" height="980"/>
<g class="st1">
	<path class="st2" d="M16.7,181.8c1.9,0,3.3,1.5,3.3,3.3s-1.5,3.3-3.3,3.3s-3.3-1.4-3.3-3.3S15,181.8,16.7,181.8z M40.7,181.8
		c1.9,0,3.3,1.5,3.3,3.3s-1.5,3.3-3.3,3.3c-1.9,0-3.3-1.5-3.3-3.3S38.8,181.8,40.7,181.8z M64.7,181.8c1.9,0,3.3,1.5,3.3,3.3
		s-1.5,3.3-3.3,3.3c-1.9,0-3.3-1.5-3.3-3.3S62.8,181.8,64.7,181.8z M88.6,181.8c1.9,0,3.3,1.5,3.3,3.3s-1.5,3.3-3.3,3.3
		c-1.9,0-3.3-1.5-3.3-3.3S86.8,181.8,88.6,181.8z M112.6,181.8c1.9,0,3.3,1.5,3.3,3.3s-1.5,3.3-3.3,3.3c-1.9,0-3.3-1.5-3.3-3.3
		S110.8,181.8,112.6,181.8z M136.6,181.8c1.9,0,3.3,1.5,3.3,3.3s-1.5,3.3-3.3,3.3c-1.9,0-3.3-1.5-3.3-3.3S134.7,181.8,136.6,181.8z
		 M160.6,181.8c1.9,0,3.3,1.5,3.3,3.3s-1.5,3.3-3.3,3.3c-1.9,0-3.3-1.5-3.3-3.3S158.7,181.8,160.6,181.8z M184.5,181.8
		c1.9,0,3.3,1.5,3.3,3.3s-1.5,3.3-3.3,3.3s-3.3-1.5-3.3-3.3S182.7,181.8,184.5,181.8z M208.5,181.8c1.9,0,3.3,1.5,3.3,3.3
		s-1.5,3.3-3.3,3.3c-1.9,0-3.3-1.5-3.3-3.3S206.6,181.8,208.5,181.8z M232.5,181.8c1.9,0,3.3,1.5,3.3,3.3s-1.5,3.3-3.3,3.3
		s-3.3-1.5-3.3-3.3S230.6,181.8,232.5,181.8z M16.7,207c1.9,0,3.3,1.5,3.3,3.3c0,1.9-1.5,3.3-3.3,3.3s-3.3-1.4-3.3-3.3
		C13.4,208.5,15,207,16.7,207z M40.7,207c1.9,0,3.3,1.5,3.3,3.3c0,1.9-1.5,3.3-3.3,3.3c-1.9,0-3.3-1.5-3.3-3.3S38.8,207,40.7,207z
		 M64.7,207c1.9,0,3.3,1.5,3.3,3.3c0,1.9-1.5,3.3-3.3,3.3c-1.9,0-3.3-1.5-3.3-3.3C61.3,208.5,62.8,207,64.7,207z M88.6,207
		c1.9,0,3.3,1.5,3.3,3.3c0,1.9-1.5,3.3-3.3,3.3c-1.9,0-3.3-1.5-3.3-3.3C85.3,208.5,86.8,207,88.6,207z M112.6,207
		c1.9,0,3.3,1.5,3.3,3.3c0,1.9-1.5,3.3-3.3,3.3c-1.9,0-3.3-1.5-3.3-3.3C109.3,208.5,110.8,207,112.6,207z M136.6,207
		c1.9,0,3.3,1.5,3.3,3.3c0,1.9-1.5,3.3-3.3,3.3c-1.9,0-3.3-1.5-3.3-3.3S134.7,207,136.6,207z M160.6,207c1.9,0,3.3,1.5,3.3,3.3
		c0,1.9-1.5,3.3-3.3,3.3c-1.9,0-3.3-1.5-3.3-3.3C157.2,208.5,158.7,207,160.6,207z M184.5,207c1.9,0,3.3,1.5,3.3,3.3
		c0,1.9-1.5,3.3-3.3,3.3s-3.3-1.5-3.3-3.3S182.7,207,184.5,207z M208.5,207c1.9,0,3.3,1.5,3.3,3.3c0,1.9-1.5,3.3-3.3,3.3
		c-1.9,0-3.3-1.5-3.3-3.3S206.6,207,208.5,207z M232.5,207c1.9,0,3.3,1.5,3.3,3.3c0,1.9-1.5,3.3-3.3,3.3s-3.3-1.5-3.3-3.3
		S230.6,207,232.5,207z M16.7,233c1.9,0,3.3,1.5,3.3,3.3c0,1.9-1.5,3.3-3.3,3.3s-3.3-1.4-3.3-3.3C13.4,234.5,15,233,16.7,233z
		 M40.7,233c1.9,0,3.3,1.5,3.3,3.3c0,1.9-1.5,3.3-3.3,3.3c-1.9,0-3.3-1.5-3.3-3.3S38.8,233,40.7,233z M64.7,233
		c1.9,0,3.3,1.5,3.3,3.3c0,1.9-1.5,3.3-3.3,3.3c-1.9,0-3.3-1.5-3.3-3.3C61.3,234.5,62.8,233,64.7,233z M88.6,233
		c1.9,0,3.3,1.5,3.3,3.3c0,1.9-1.5,3.3-3.3,3.3c-1.9,0-3.3-1.5-3.3-3.3C85.3,234.5,86.8,233,88.6,233z M112.6,233
		c1.9,0,3.3,1.5,3.3,3.3c0,1.9-1.5,3.3-3.3,3.3c-1.9,0-3.3-1.5-3.3-3.3C109.3,234.5,110.8,233,112.6,233z M136.6,233
		c1.9,0,3.3,1.5,3.3,3.3c0,1.9-1.5,3.3-3.3,3.3c-1.9,0-3.3-1.5-3.3-3.3S134.7,233,136.6,233z M160.6,233c1.9,0,3.3,1.5,3.3,3.3
		c0,1.9-1.5,3.3-3.3,3.3c-1.9,0-3.3-1.5-3.3-3.3C157.2,234.5,158.7,233,160.6,233z M184.5,233c1.9,0,3.3,1.5,3.3,3.3
		c0,1.9-1.5,3.3-3.3,3.3s-3.3-1.5-3.3-3.3S182.7,233,184.5,233z M208.5,233c1.9,0,3.3,1.5,3.3,3.3c0,1.9-1.5,3.3-3.3,3.3
		c-1.9,0-3.3-1.5-3.3-3.3S206.6,233,208.5,233z M232.5,233c1.9,0,3.3,1.5,3.3,3.3c0,1.9-1.5,3.3-3.3,3.3s-3.3-1.5-3.3-3.3
		S230.6,233,232.5,233z M16.7,259c1.9,0,3.3,1.5,3.3,3.3c0,1.9-1.5,3.3-3.3,3.3s-3.3-1.4-3.3-3.3C13.4,260.5,15,259,16.7,259z
		 M40.7,259c1.9,0,3.3,1.5,3.3,3.3c0,1.9-1.5,3.3-3.3,3.3c-1.9,0-3.3-1.5-3.3-3.3C37.4,260.5,38.8,259,40.7,259z M64.7,259
		c1.9,0,3.3,1.5,3.3,3.3c0,1.9-1.5,3.3-3.3,3.3c-1.9,0-3.3-1.5-3.3-3.3C61.3,260.5,62.8,259,64.7,259z M88.6,259
		c1.9,0,3.3,1.5,3.3,3.3c0,1.9-1.5,3.3-3.3,3.3c-1.9,0-3.3-1.5-3.3-3.3C85.3,260.5,86.8,259,88.6,259z M112.6,259
		c1.9,0,3.3,1.5,3.3,3.3c0,1.9-1.5,3.3-3.3,3.3c-1.9,0-3.3-1.5-3.3-3.3C109.3,260.5,110.8,259,112.6,259z M136.6,259
		c1.9,0,3.3,1.5,3.3,3.3c0,1.9-1.5,3.3-3.3,3.3c-1.9,0-3.3-1.5-3.3-3.3C133.3,260.5,134.7,259,136.6,259z M160.6,259
		c1.9,0,3.3,1.5,3.3,3.3c0,1.9-1.5,3.3-3.3,3.3c-1.9,0-3.3-1.5-3.3-3.3C157.2,260.5,158.7,259,160.6,259z M184.5,259
		c1.9,0,3.3,1.5,3.3,3.3c0,1.9-1.5,3.3-3.3,3.3s-3.3-1.5-3.3-3.3C181.2,260.5,182.7,259,184.5,259z M208.5,259
		c1.9,0,3.3,1.5,3.3,3.3c0,1.9-1.5,3.3-3.3,3.3c-1.9,0-3.3-1.5-3.3-3.3C205.2,260.5,206.6,259,208.5,259z M232.5,259
		c1.9,0,3.3,1.5,3.3,3.3c0,1.9-1.5,3.3-3.3,3.3s-3.3-1.5-3.3-3.3C229.2,260.5,230.6,259,232.5,259z M16.7,284.3
		c1.9,0,3.3,1.5,3.3,3.3c0,1.9-1.5,3.3-3.3,3.3s-3.3-1.5-3.3-3.3C13.4,285.7,15,284.3,16.7,284.3z M40.7,284.3
		c1.9,0,3.3,1.5,3.3,3.3c0,1.9-1.5,3.3-3.3,3.3c-1.9,0-3.3-1.5-3.3-3.3C37.4,285.7,38.8,284.3,40.7,284.3z M64.7,284.3
		c1.9,0,3.3,1.5,3.3,3.3c0,1.9-1.5,3.3-3.3,3.3c-1.9,0-3.3-1.5-3.3-3.3C61.3,285.7,62.8,284.3,64.7,284.3z M88.6,284.3
		c1.9,0,3.3,1.5,3.3,3.3c0,1.9-1.5,3.3-3.3,3.3c-1.9,0-3.3-1.5-3.3-3.3C85.3,285.7,86.8,284.3,88.6,284.3z M112.6,284.3
		c1.9,0,3.3,1.5,3.3,3.3c0,1.9-1.5,3.3-3.3,3.3c-1.9,0-3.3-1.5-3.3-3.3C109.3,285.7,110.8,284.3,112.6,284.3z M136.6,284.3
		c1.9,0,3.3,1.5,3.3,3.3c0,1.9-1.5,3.3-3.3,3.3c-1.9,0-3.3-1.5-3.3-3.3C133.3,285.7,134.7,284.3,136.6,284.3z M160.6,284.3
		c1.9,0,3.3,1.5,3.3,3.3c0,1.9-1.5,3.3-3.3,3.3c-1.9,0-3.3-1.5-3.3-3.3C157.2,285.7,158.7,284.3,160.6,284.3z M184.5,284.3
		c1.9,0,3.3,1.5,3.3,3.3c0,1.9-1.5,3.3-3.3,3.3s-3.3-1.5-3.3-3.3C181.2,285.7,182.7,284.3,184.5,284.3z M208.5,284.3
		c1.9,0,3.3,1.5,3.3,3.3c0,1.9-1.5,3.3-3.3,3.3c-1.9,0-3.3-1.5-3.3-3.3C205.2,285.7,206.6,284.3,208.5,284.3z M232.5,284.3
		c1.9,0,3.3,1.5,3.3,3.3c0,1.9-1.5,3.3-3.3,3.3s-3.3-1.5-3.3-3.3C229.2,285.7,230.6,284.3,232.5,284.3z M16.7,310.2
		c1.9,0,3.3,1.5,3.3,3.3c0,1.9-1.5,3.3-3.3,3.3s-3.3-1.5-3.3-3.3C13.4,311.7,15,310.2,16.7,310.2z M40.7,310.2
		c1.9,0,3.3,1.5,3.3,3.3c0,1.9-1.5,3.3-3.3,3.3c-1.9,0-3.3-1.5-3.3-3.3S38.8,310.2,40.7,310.2z M64.7,310.2c1.9,0,3.3,1.5,3.3,3.3
		c0,1.9-1.5,3.3-3.3,3.3c-1.9,0-3.3-1.5-3.3-3.3C61.3,311.7,62.8,310.2,64.7,310.2z M88.6,310.2c1.9,0,3.3,1.5,3.3,3.3
		c0,1.9-1.5,3.3-3.3,3.3c-1.9,0-3.3-1.5-3.3-3.3C85.3,311.7,86.8,310.2,88.6,310.2z M112.6,310.2c1.9,0,3.3,1.5,3.3,3.3
		c0,1.9-1.5,3.3-3.3,3.3c-1.9,0-3.3-1.5-3.3-3.3C109.3,311.7,110.8,310.2,112.6,310.2z M136.6,310.2c1.9,0,3.3,1.5,3.3,3.3
		c0,1.9-1.5,3.3-3.3,3.3c-1.9,0-3.3-1.5-3.3-3.3S134.7,310.2,136.6,310.2z M160.6,310.2c1.9,0,3.3,1.5,3.3,3.3
		c0,1.9-1.5,3.3-3.3,3.3c-1.9,0-3.3-1.5-3.3-3.3C157.2,311.7,158.7,310.2,160.6,310.2z M184.5,310.2c1.9,0,3.3,1.5,3.3,3.3
		c0,1.9-1.5,3.3-3.3,3.3s-3.3-1.5-3.3-3.3S182.7,310.2,184.5,310.2z M208.5,310.2c1.9,0,3.3,1.5,3.3,3.3c0,1.9-1.5,3.3-3.3,3.3
		c-1.9,0-3.3-1.5-3.3-3.3S206.6,310.2,208.5,310.2z M232.5,310.2c1.9,0,3.3,1.5,3.3,3.3c0,1.9-1.5,3.3-3.3,3.3s-3.3-1.5-3.3-3.3
		S230.6,310.2,232.5,310.2z M16.7,336.2c1.9,0,3.3,1.5,3.3,3.3s-1.5,3.3-3.3,3.3s-3.3-1.5-3.3-3.3C13.4,337.8,15,336.2,16.7,336.2z
		 M40.7,336.2c1.9,0,3.3,1.5,3.3,3.3s-1.5,3.3-3.3,3.3c-1.9,0-3.3-1.5-3.3-3.3C37.4,337.8,38.8,336.2,40.7,336.2z M64.7,336.2
		c1.9,0,3.3,1.5,3.3,3.3s-1.5,3.3-3.3,3.3c-1.9,0-3.3-1.5-3.3-3.3C61.4,337.8,62.8,336.2,64.7,336.2z M88.6,336.2
		c1.9,0,3.3,1.5,3.3,3.3s-1.5,3.3-3.3,3.3c-1.9,0-3.3-1.5-3.3-3.3C85.3,337.8,86.8,336.2,88.6,336.2z M112.6,336.2
		c1.9,0,3.3,1.5,3.3,3.3s-1.5,3.3-3.3,3.3c-1.9,0-3.3-1.5-3.3-3.3C109.3,337.8,110.8,336.2,112.6,336.2z M136.6,336.2
		c1.9,0,3.3,1.5,3.3,3.3s-1.5,3.3-3.3,3.3c-1.9,0-3.3-1.5-3.3-3.3C133.3,337.8,134.7,336.2,136.6,336.2z M160.6,336.2
		c1.9,0,3.3,1.5,3.3,3.3s-1.5,3.3-3.3,3.3c-1.9,0-3.3-1.5-3.3-3.3C157.3,337.8,158.7,336.2,160.6,336.2z M184.5,336.2
		c1.9,0,3.3,1.5,3.3,3.3s-1.5,3.3-3.3,3.3s-3.3-1.5-3.3-3.3C181.2,337.8,182.7,336.2,184.5,336.2z M208.5,336.2
		c1.9,0,3.3,1.5,3.3,3.3s-1.5,3.3-3.3,3.3c-1.9,0-3.3-1.5-3.3-3.3C205.2,337.8,206.6,336.2,208.5,336.2z M232.5,336.2
		c1.9,0,3.3,1.5,3.3,3.3s-1.5,3.3-3.3,3.3s-3.3-1.5-3.3-3.3C229.2,337.8,230.6,336.2,232.5,336.2z M16.7,362.2
		c1.9,0,3.3,1.5,3.3,3.3s-1.5,3.3-3.3,3.3s-3.3-1.5-3.3-3.3S15,362.2,16.7,362.2z M40.7,362.2c1.9,0,3.3,1.5,3.3,3.3
		s-1.5,3.3-3.3,3.3c-1.9,0-3.3-1.5-3.3-3.3S38.8,362.2,40.7,362.2z M64.7,362.2c1.9,0,3.3,1.5,3.3,3.3s-1.5,3.3-3.3,3.3
		c-1.9,0-3.3-1.5-3.3-3.3S62.8,362.2,64.7,362.2z M88.6,362.2c1.9,0,3.3,1.5,3.3,3.3s-1.5,3.3-3.3,3.3c-1.9,0-3.3-1.5-3.3-3.3
		S86.8,362.2,88.6,362.2z M112.6,362.2c1.9,0,3.3,1.5,3.3,3.3s-1.5,3.3-3.3,3.3c-1.9,0-3.3-1.5-3.3-3.3S110.8,362.2,112.6,362.2z
		 M136.6,362.2c1.9,0,3.3,1.5,3.3,3.3s-1.5,3.3-3.3,3.3c-1.9,0-3.3-1.5-3.3-3.3S134.7,362.2,136.6,362.2z M160.6,362.2
		c1.9,0,3.3,1.5,3.3,3.3s-1.5,3.3-3.3,3.3c-1.9,0-3.3-1.5-3.3-3.3S158.7,362.2,160.6,362.2z M184.5,362.2c1.9,0,3.3,1.5,3.3,3.3
		s-1.5,3.3-3.3,3.3s-3.3-1.5-3.3-3.3S182.7,362.2,184.5,362.2z M208.5,362.2c1.9,0,3.3,1.5,3.3,3.3s-1.5,3.3-3.3,3.3
		c-1.9,0-3.3-1.5-3.3-3.3S206.6,362.2,208.5,362.2z M232.5,362.2c1.9,0,3.3,1.5,3.3,3.3s-1.5,3.3-3.3,3.3s-3.3-1.5-3.3-3.3
		S230.6,362.2,232.5,362.2z"/>
</g>
</svg>
