<?xml version="1.0" encoding="utf-8"?>
<!-- Generator: Adobe Illustrator 22.0.1, SVG Export Plug-In . SVG Version: 6.00 Build 0)  -->
<svg version="1.1" id="Ebene_1" xmlns="http://www.w3.org/2000/svg" xmlns:xlink="http://www.w3.org/1999/xlink" x="0px" y="0px"
	 viewBox="0 0 1920 980" style="enable-background:new 0 0 1920 980;" xml:space="preserve">
<style type="text/css">
	.st0{fill:#EDEDEE;}
</style>
<circle class="st0" cx="29" cy="30" r="2.5"/>
<circle class="st0" cx="29" cy="90" r="2.5"/>
<circle class="st0" cx="29" cy="150" r="2.5"/>
<circle class="st0" cx="29" cy="210" r="2.5"/>
<circle class="st0" cx="29" cy="270" r="2.5"/>
<circle class="st0" cx="29" cy="330" r="2.5"/>
<circle class="st0" cx="29" cy="390" r="2.5"/>
<circle class="st0" cx="29" cy="450" r="2.5"/>
<circle class="st0" cx="29" cy="510" r="2.5"/>
<circle class="st0" cx="29" cy="570" r="2.5"/>
<circle class="st0" cx="29" cy="630" r="2.5"/>
<circle class="st0" cx="29" cy="690" r="2.5"/>
<circle class="st0" cx="29" cy="750" r="2.5"/>
<circle class="st0" cx="29" cy="810" r="2.5"/>
<circle class="st0" cx="29" cy="870" r="2.5"/>
<circle class="st0" cx="29" cy="930" r="2.5"/>
<circle class="st0" cx="89" cy="30" r="2.5"/>
<circle class="st0" cx="89" cy="90" r="2.5"/>
<circle class="st0" cx="89" cy="150" r="2.5"/>
<circle class="st0" cx="89" cy="210" r="2.5"/>
<circle class="st0" cx="89" cy="270" r="2.5"/>
<circle class="st0" cx="89" cy="330" r="2.5"/>
<circle class="st0" cx="89" cy="390" r="2.5"/>
<circle class="st0" cx="89" cy="450" r="2.5"/>
<circle class="st0" cx="89" cy="510" r="2.5"/>
<circle class="st0" cx="89" cy="570" r="2.5"/>
<circle class="st0" cx="89" cy="630" r="2.5"/>
<circle class="st0" cx="89" cy="690" r="2.5"/>
<circle class="st0" cx="89" cy="750" r="2.5"/>
<circle class="st0" cx="89" cy="810" r="2.5"/>
<circle class="st0" cx="89" cy="870" r="2.5"/>
<circle class="st0" cx="89" cy="930" r="2.5"/>
<circle class="st0" cx="149" cy="30" r="2.5"/>
<circle class="st0" cx="149" cy="90" r="2.5"/>
<circle class="st0" cx="149" cy="150" r="2.5"/>
<circle class="st0" cx="149" cy="210" r="2.5"/>
<circle class="st0" cx="149" cy="270" r="2.5"/>
<circle class="st0" cx="149" cy="330" r="2.5"/>
<circle class="st0" cx="149" cy="390" r="2.5"/>
<circle class="st0" cx="149" cy="450" r="2.5"/>
<circle class="st0" cx="149" cy="510" r="2.5"/>
<circle class="st0" cx="149" cy="570" r="2.5"/>
<circle class="st0" cx="149" cy="630" r="2.5"/>
<circle class="st0" cx="149" cy="690" r="2.5"/>
<circle class="st0" cx="149" cy="750" r="2.5"/>
<circle class="st0" cx="149" cy="810" r="2.5"/>
<circle class="st0" cx="149" cy="870" r="2.5"/>
<circle class="st0" cx="149" cy="930" r="2.5"/>
<circle class="st0" cx="209" cy="30" r="2.5"/>
<circle class="st0" cx="209" cy="90" r="2.5"/>
<circle class="st0" cx="209" cy="150" r="2.5"/>
<circle class="st0" cx="209" cy="210" r="2.5"/>
<circle class="st0" cx="209" cy="270" r="2.5"/>
<circle class="st0" cx="209" cy="330" r="2.5"/>
<circle class="st0" cx="209" cy="390" r="2.5"/>
<circle class="st0" cx="209" cy="450" r="2.5"/>
<circle class="st0" cx="209" cy="510" r="2.5"/>
<circle class="st0" cx="209" cy="570" r="2.5"/>
<circle class="st0" cx="209" cy="630" r="2.5"/>
<circle class="st0" cx="209" cy="690" r="2.5"/>
<circle class="st0" cx="209" cy="750" r="2.5"/>
<circle class="st0" cx="209" cy="810" r="2.5"/>
<circle class="st0" cx="209" cy="870" r="2.5"/>
<circle class="st0" cx="209" cy="930" r="2.5"/>
<circle class="st0" cx="269" cy="30" r="2.5"/>
<circle class="st0" cx="269" cy="90" r="2.5"/>
<circle class="st0" cx="269" cy="150" r="2.5"/>
<circle class="st0" cx="269" cy="210" r="2.5"/>
<circle class="st0" cx="269" cy="270" r="2.5"/>
<circle class="st0" cx="269" cy="330" r="2.5"/>
<circle class="st0" cx="269" cy="390" r="2.5"/>
<circle class="st0" cx="269" cy="450" r="2.5"/>
<circle class="st0" cx="269" cy="510" r="2.5"/>
<circle class="st0" cx="269" cy="570" r="2.5"/>
<circle class="st0" cx="269" cy="630" r="2.5"/>
<circle class="st0" cx="269" cy="690" r="2.5"/>
<circle class="st0" cx="269" cy="750" r="2.5"/>
<circle class="st0" cx="269" cy="810" r="2.5"/>
<circle class="st0" cx="269" cy="870" r="2.5"/>
<circle class="st0" cx="269" cy="930" r="2.5"/>
<circle class="st0" cx="329" cy="30" r="2.5"/>
<circle class="st0" cx="329" cy="90" r="2.5"/>
<circle class="st0" cx="329" cy="150" r="2.5"/>
<circle class="st0" cx="329" cy="210" r="2.5"/>
<circle class="st0" cx="329" cy="270" r="2.5"/>
<circle class="st0" cx="329" cy="330" r="2.5"/>
<circle class="st0" cx="329" cy="390" r="2.5"/>
<circle class="st0" cx="329" cy="450" r="2.5"/>
<circle class="st0" cx="329" cy="510" r="2.5"/>
<circle class="st0" cx="329" cy="570" r="2.5"/>
<circle class="st0" cx="329" cy="630" r="2.5"/>
<circle class="st0" cx="329" cy="690" r="2.5"/>
<circle class="st0" cx="329" cy="750" r="2.5"/>
<circle class="st0" cx="329" cy="810" r="2.5"/>
<circle class="st0" cx="329" cy="870" r="2.5"/>
<circle class="st0" cx="329" cy="930" r="2.5"/>
<circle class="st0" cx="389" cy="30" r="2.5"/>
<circle class="st0" cx="389" cy="90" r="2.5"/>
<circle class="st0" cx="389" cy="150" r="2.5"/>
<circle class="st0" cx="389" cy="210" r="2.5"/>
<circle class="st0" cx="389" cy="270" r="2.5"/>
<circle class="st0" cx="389" cy="330" r="2.5"/>
<circle class="st0" cx="389" cy="390" r="2.5"/>
<circle class="st0" cx="389" cy="450" r="2.5"/>
<circle class="st0" cx="389" cy="510" r="2.5"/>
<circle class="st0" cx="389" cy="570" r="2.5"/>
<circle class="st0" cx="389" cy="630" r="2.5"/>
<circle class="st0" cx="389" cy="690" r="2.5"/>
<circle class="st0" cx="389" cy="750" r="2.5"/>
<circle class="st0" cx="389" cy="810" r="2.5"/>
<circle class="st0" cx="389" cy="870" r="2.5"/>
<circle class="st0" cx="389" cy="930" r="2.5"/>
<circle class="st0" cx="449" cy="30" r="2.5"/>
<circle class="st0" cx="449" cy="90" r="2.5"/>
<circle class="st0" cx="449" cy="150" r="2.5"/>
<circle class="st0" cx="449" cy="210" r="2.5"/>
<circle class="st0" cx="449" cy="270" r="2.5"/>
<circle class="st0" cx="449" cy="330" r="2.5"/>
<circle class="st0" cx="449" cy="390" r="2.5"/>
<circle class="st0" cx="449" cy="450" r="2.5"/>
<circle class="st0" cx="449" cy="510" r="2.5"/>
<circle class="st0" cx="449" cy="570" r="2.5"/>
<circle class="st0" cx="449" cy="630" r="2.5"/>
<circle class="st0" cx="449" cy="690" r="2.5"/>
<circle class="st0" cx="449" cy="750" r="2.5"/>
<circle class="st0" cx="449" cy="810" r="2.5"/>
<circle class="st0" cx="449" cy="870" r="2.5"/>
<circle class="st0" cx="449" cy="930" r="2.5"/>
<circle class="st0" cx="509" cy="30" r="2.5"/>
<circle class="st0" cx="509" cy="90" r="2.5"/>
<circle class="st0" cx="509" cy="150" r="2.5"/>
<circle class="st0" cx="509" cy="210" r="2.5"/>
<circle class="st0" cx="509" cy="270" r="2.5"/>
<circle class="st0" cx="509" cy="330" r="2.5"/>
<circle class="st0" cx="509" cy="390" r="2.5"/>
<circle class="st0" cx="509" cy="450" r="2.5"/>
<circle class="st0" cx="509" cy="510" r="2.5"/>
<circle class="st0" cx="509" cy="570" r="2.5"/>
<circle class="st0" cx="509" cy="630" r="2.5"/>
<circle class="st0" cx="509" cy="690" r="2.5"/>
<circle class="st0" cx="509" cy="750" r="2.5"/>
<circle class="st0" cx="509" cy="810" r="2.5"/>
<circle class="st0" cx="509" cy="870" r="2.5"/>
<circle class="st0" cx="509" cy="930" r="2.5"/>
<circle class="st0" cx="569" cy="30" r="2.5"/>
<circle class="st0" cx="569" cy="90" r="2.5"/>
<circle class="st0" cx="569" cy="150" r="2.5"/>
<circle class="st0" cx="569" cy="210" r="2.5"/>
<circle class="st0" cx="569" cy="270" r="2.5"/>
<circle class="st0" cx="569" cy="330" r="2.5"/>
<circle class="st0" cx="569" cy="390" r="2.5"/>
<circle class="st0" cx="569" cy="450" r="2.5"/>
<circle class="st0" cx="569" cy="510" r="2.5"/>
<circle class="st0" cx="569" cy="570" r="2.5"/>
<circle class="st0" cx="569" cy="630" r="2.5"/>
<circle class="st0" cx="569" cy="690" r="2.5"/>
<circle class="st0" cx="569" cy="750" r="2.5"/>
<circle class="st0" cx="569" cy="810" r="2.5"/>
<circle class="st0" cx="569" cy="870" r="2.5"/>
<circle class="st0" cx="569" cy="930" r="2.5"/>
<circle class="st0" cx="629" cy="30" r="2.5"/>
<circle class="st0" cx="629" cy="90" r="2.5"/>
<circle class="st0" cx="629" cy="150" r="2.5"/>
<circle class="st0" cx="629" cy="210" r="2.5"/>
<circle class="st0" cx="629" cy="270" r="2.5"/>
<circle class="st0" cx="629" cy="330" r="2.5"/>
<circle class="st0" cx="629" cy="390" r="2.5"/>
<circle class="st0" cx="629" cy="450" r="2.5"/>
<circle class="st0" cx="629" cy="510" r="2.5"/>
<circle class="st0" cx="629" cy="570" r="2.5"/>
<circle class="st0" cx="629" cy="630" r="2.5"/>
<circle class="st0" cx="629" cy="690" r="2.5"/>
<circle class="st0" cx="629" cy="750" r="2.5"/>
<circle class="st0" cx="629" cy="810" r="2.5"/>
<circle class="st0" cx="629" cy="870" r="2.5"/>
<circle class="st0" cx="629" cy="930" r="2.5"/>
<circle class="st0" cx="689" cy="30" r="2.5"/>
<circle class="st0" cx="689" cy="90" r="2.5"/>
<circle class="st0" cx="689" cy="150" r="2.5"/>
<circle class="st0" cx="689" cy="210" r="2.5"/>
<circle class="st0" cx="689" cy="270" r="2.5"/>
<circle class="st0" cx="689" cy="330" r="2.5"/>
<circle class="st0" cx="689" cy="390" r="2.5"/>
<circle class="st0" cx="689" cy="450" r="2.5"/>
<circle class="st0" cx="689" cy="510" r="2.5"/>
<circle class="st0" cx="689" cy="570" r="2.5"/>
<circle class="st0" cx="689" cy="630" r="2.5"/>
<circle class="st0" cx="689" cy="690" r="2.5"/>
<circle class="st0" cx="689" cy="750" r="2.5"/>
<circle class="st0" cx="689" cy="810" r="2.5"/>
<circle class="st0" cx="689" cy="870" r="2.5"/>
<circle class="st0" cx="689" cy="930" r="2.5"/>
<circle class="st0" cx="749" cy="30" r="2.5"/>
<circle class="st0" cx="749" cy="90" r="2.5"/>
<circle class="st0" cx="749" cy="150" r="2.5"/>
<circle class="st0" cx="749" cy="210" r="2.5"/>
<circle class="st0" cx="749" cy="270" r="2.5"/>
<circle class="st0" cx="749" cy="330" r="2.5"/>
<circle class="st0" cx="749" cy="390" r="2.5"/>
<circle class="st0" cx="749" cy="450" r="2.5"/>
<circle class="st0" cx="749" cy="510" r="2.5"/>
<circle class="st0" cx="749" cy="570" r="2.5"/>
<circle class="st0" cx="749" cy="630" r="2.5"/>
<circle class="st0" cx="749" cy="690" r="2.5"/>
<circle class="st0" cx="749" cy="750" r="2.5"/>
<circle class="st0" cx="749" cy="810" r="2.5"/>
<circle class="st0" cx="749" cy="870" r="2.5"/>
<circle class="st0" cx="749" cy="930" r="2.5"/>
<circle class="st0" cx="809" cy="30" r="2.5"/>
<circle class="st0" cx="809" cy="90" r="2.5"/>
<circle class="st0" cx="809" cy="150" r="2.5"/>
<circle class="st0" cx="809" cy="210" r="2.5"/>
<circle class="st0" cx="809" cy="270" r="2.5"/>
<circle class="st0" cx="809" cy="330" r="2.5"/>
<circle class="st0" cx="809" cy="390" r="2.5"/>
<circle class="st0" cx="809" cy="450" r="2.5"/>
<circle class="st0" cx="809" cy="510" r="2.5"/>
<circle class="st0" cx="809" cy="570" r="2.5"/>
<circle class="st0" cx="809" cy="630" r="2.5"/>
<circle class="st0" cx="809" cy="690" r="2.5"/>
<circle class="st0" cx="809" cy="750" r="2.5"/>
<circle class="st0" cx="809" cy="810" r="2.5"/>
<circle class="st0" cx="809" cy="870" r="2.5"/>
<circle class="st0" cx="809" cy="930" r="2.5"/>
<circle class="st0" cx="869" cy="30" r="2.5"/>
<circle class="st0" cx="869" cy="90" r="2.5"/>
<circle class="st0" cx="869" cy="150" r="2.5"/>
<circle class="st0" cx="869" cy="210" r="2.5"/>
<circle class="st0" cx="869" cy="270" r="2.5"/>
<circle class="st0" cx="869" cy="330" r="2.5"/>
<circle class="st0" cx="869" cy="390" r="2.5"/>
<circle class="st0" cx="869" cy="450" r="2.5"/>
<circle class="st0" cx="869" cy="510" r="2.5"/>
<circle class="st0" cx="869" cy="570" r="2.5"/>
<circle class="st0" cx="869" cy="630" r="2.5"/>
<circle class="st0" cx="869" cy="690" r="2.5"/>
<circle class="st0" cx="869" cy="750" r="2.5"/>
<circle class="st0" cx="869" cy="810" r="2.5"/>
<circle class="st0" cx="869" cy="870" r="2.5"/>
<circle class="st0" cx="869" cy="930" r="2.5"/>
<circle class="st0" cx="929" cy="30" r="2.5"/>
<circle class="st0" cx="929" cy="90" r="2.5"/>
<circle class="st0" cx="929" cy="150" r="2.5"/>
<circle class="st0" cx="929" cy="210" r="2.5"/>
<circle class="st0" cx="929" cy="270" r="2.5"/>
<circle class="st0" cx="929" cy="330" r="2.5"/>
<circle class="st0" cx="929" cy="390" r="2.5"/>
<circle class="st0" cx="929" cy="450" r="2.5"/>
<circle class="st0" cx="929" cy="510" r="2.5"/>
<circle class="st0" cx="929" cy="570" r="2.5"/>
<circle class="st0" cx="929" cy="630" r="2.5"/>
<circle class="st0" cx="929" cy="690" r="2.5"/>
<circle class="st0" cx="929" cy="750" r="2.5"/>
<circle class="st0" cx="929" cy="810" r="2.5"/>
<circle class="st0" cx="929" cy="870" r="2.5"/>
<circle class="st0" cx="929" cy="930" r="2.5"/>
<circle class="st0" cx="989" cy="30" r="2.5"/>
<circle class="st0" cx="989" cy="90" r="2.5"/>
<circle class="st0" cx="989" cy="150" r="2.5"/>
<circle class="st0" cx="989" cy="210" r="2.5"/>
<circle class="st0" cx="989" cy="270" r="2.5"/>
<circle class="st0" cx="989" cy="330" r="2.5"/>
<circle class="st0" cx="989" cy="390" r="2.5"/>
<circle class="st0" cx="989" cy="450" r="2.5"/>
<circle class="st0" cx="989" cy="510" r="2.5"/>
<circle class="st0" cx="989" cy="570" r="2.5"/>
<circle class="st0" cx="989" cy="630" r="2.5"/>
<circle class="st0" cx="989" cy="690" r="2.5"/>
<circle class="st0" cx="989" cy="750" r="2.5"/>
<circle class="st0" cx="989" cy="810" r="2.5"/>
<circle class="st0" cx="989" cy="870" r="2.5"/>
<circle class="st0" cx="989" cy="930" r="2.5"/>
<circle class="st0" cx="1049" cy="30" r="2.5"/>
<circle class="st0" cx="1049" cy="90" r="2.5"/>
<circle class="st0" cx="1049" cy="150" r="2.5"/>
<circle class="st0" cx="1049" cy="210" r="2.5"/>
<circle class="st0" cx="1049" cy="270" r="2.5"/>
<circle class="st0" cx="1049" cy="330" r="2.5"/>
<circle class="st0" cx="1049" cy="390" r="2.5"/>
<circle class="st0" cx="1049" cy="450" r="2.5"/>
<circle class="st0" cx="1049" cy="510" r="2.5"/>
<circle class="st0" cx="1049" cy="570" r="2.5"/>
<circle class="st0" cx="1049" cy="630" r="2.5"/>
<circle class="st0" cx="1049" cy="690" r="2.5"/>
<circle class="st0" cx="1049" cy="750" r="2.5"/>
<circle class="st0" cx="1049" cy="810" r="2.5"/>
<circle class="st0" cx="1049" cy="870" r="2.5"/>
<circle class="st0" cx="1049" cy="930" r="2.5"/>
<circle class="st0" cx="1109" cy="30" r="2.5"/>
<circle class="st0" cx="1109" cy="90" r="2.5"/>
<circle class="st0" cx="1109" cy="150" r="2.5"/>
<circle class="st0" cx="1109" cy="210" r="2.5"/>
<circle class="st0" cx="1109" cy="270" r="2.5"/>
<circle class="st0" cx="1109" cy="330" r="2.5"/>
<circle class="st0" cx="1109" cy="390" r="2.5"/>
<circle class="st0" cx="1109" cy="450" r="2.5"/>
<circle class="st0" cx="1109" cy="510" r="2.5"/>
<circle class="st0" cx="1109" cy="570" r="2.5"/>
<circle class="st0" cx="1109" cy="630" r="2.5"/>
<circle class="st0" cx="1109" cy="690" r="2.5"/>
<circle class="st0" cx="1109" cy="750" r="2.5"/>
<circle class="st0" cx="1109" cy="810" r="2.5"/>
<circle class="st0" cx="1109" cy="870" r="2.5"/>
<circle class="st0" cx="1109" cy="930" r="2.5"/>
<circle class="st0" cx="1169" cy="30" r="2.5"/>
<circle class="st0" cx="1169" cy="90" r="2.5"/>
<circle class="st0" cx="1169" cy="150" r="2.5"/>
<circle class="st0" cx="1169" cy="210" r="2.5"/>
<circle class="st0" cx="1169" cy="270" r="2.5"/>
<circle class="st0" cx="1169" cy="330" r="2.5"/>
<circle class="st0" cx="1169" cy="390" r="2.5"/>
<circle class="st0" cx="1169" cy="450" r="2.5"/>
<circle class="st0" cx="1169" cy="510" r="2.5"/>
<circle class="st0" cx="1169" cy="570" r="2.5"/>
<circle class="st0" cx="1169" cy="630" r="2.5"/>
<circle class="st0" cx="1169" cy="690" r="2.5"/>
<circle class="st0" cx="1169" cy="750" r="2.5"/>
<circle class="st0" cx="1169" cy="810" r="2.5"/>
<circle class="st0" cx="1169" cy="870" r="2.5"/>
<circle class="st0" cx="1169" cy="930" r="2.5"/>
<circle class="st0" cx="1229" cy="30" r="2.5"/>
<circle class="st0" cx="1229" cy="90" r="2.5"/>
<circle class="st0" cx="1229" cy="150" r="2.5"/>
<circle class="st0" cx="1229" cy="210" r="2.5"/>
<circle class="st0" cx="1229" cy="270" r="2.5"/>
<circle class="st0" cx="1229" cy="330" r="2.5"/>
<circle class="st0" cx="1229" cy="390" r="2.5"/>
<circle class="st0" cx="1229" cy="450" r="2.5"/>
<circle class="st0" cx="1229" cy="510" r="2.5"/>
<circle class="st0" cx="1229" cy="570" r="2.5"/>
<circle class="st0" cx="1229" cy="630" r="2.5"/>
<circle class="st0" cx="1229" cy="690" r="2.5"/>
<circle class="st0" cx="1229" cy="750" r="2.5"/>
<circle class="st0" cx="1229" cy="810" r="2.5"/>
<circle class="st0" cx="1229" cy="870" r="2.5"/>
<circle class="st0" cx="1229" cy="930" r="2.5"/>
<circle class="st0" cx="1289" cy="30" r="2.5"/>
<circle class="st0" cx="1289" cy="90" r="2.5"/>
<circle class="st0" cx="1289" cy="150" r="2.5"/>
<circle class="st0" cx="1289" cy="210" r="2.5"/>
<circle class="st0" cx="1289" cy="270" r="2.5"/>
<circle class="st0" cx="1289" cy="330" r="2.5"/>
<circle class="st0" cx="1289" cy="390" r="2.5"/>
<circle class="st0" cx="1289" cy="450" r="2.5"/>
<circle class="st0" cx="1289" cy="510" r="2.5"/>
<circle class="st0" cx="1289" cy="570" r="2.5"/>
<circle class="st0" cx="1289" cy="630" r="2.5"/>
<circle class="st0" cx="1289" cy="690" r="2.5"/>
<circle class="st0" cx="1289" cy="750" r="2.5"/>
<circle class="st0" cx="1289" cy="810" r="2.5"/>
<circle class="st0" cx="1289" cy="870" r="2.5"/>
<circle class="st0" cx="1289" cy="930" r="2.5"/>
<circle class="st0" cx="1349" cy="30" r="2.5"/>
<circle class="st0" cx="1349" cy="90" r="2.5"/>
<circle class="st0" cx="1349" cy="150" r="2.5"/>
<circle class="st0" cx="1349" cy="210" r="2.5"/>
<circle class="st0" cx="1349" cy="270" r="2.5"/>
<circle class="st0" cx="1349" cy="330" r="2.5"/>
<circle class="st0" cx="1349" cy="390" r="2.5"/>
<circle class="st0" cx="1349" cy="450" r="2.5"/>
<circle class="st0" cx="1349" cy="510" r="2.5"/>
<circle class="st0" cx="1349" cy="570" r="2.5"/>
<circle class="st0" cx="1349" cy="630" r="2.5"/>
<circle class="st0" cx="1349" cy="690" r="2.5"/>
<circle class="st0" cx="1349" cy="750" r="2.5"/>
<circle class="st0" cx="1349" cy="810" r="2.5"/>
<circle class="st0" cx="1349" cy="870" r="2.5"/>
<circle class="st0" cx="1349" cy="930" r="2.5"/>
<circle class="st0" cx="1409" cy="30" r="2.5"/>
<circle class="st0" cx="1409" cy="90" r="2.5"/>
<circle class="st0" cx="1409" cy="150" r="2.5"/>
<circle class="st0" cx="1409" cy="210" r="2.5"/>
<circle class="st0" cx="1409" cy="270" r="2.5"/>
<circle class="st0" cx="1409" cy="330" r="2.5"/>
<circle class="st0" cx="1409" cy="390" r="2.5"/>
<circle class="st0" cx="1409" cy="450" r="2.5"/>
<circle class="st0" cx="1409" cy="510" r="2.5"/>
<circle class="st0" cx="1409" cy="570" r="2.5"/>
<circle class="st0" cx="1409" cy="630" r="2.5"/>
<circle class="st0" cx="1409" cy="690" r="2.5"/>
<circle class="st0" cx="1409" cy="750" r="2.5"/>
<circle class="st0" cx="1409" cy="810" r="2.5"/>
<circle class="st0" cx="1409" cy="870" r="2.5"/>
<circle class="st0" cx="1409" cy="930" r="2.5"/>
<circle class="st0" cx="1469" cy="30" r="2.5"/>
<circle class="st0" cx="1469" cy="90" r="2.5"/>
<circle class="st0" cx="1469" cy="150" r="2.5"/>
<circle class="st0" cx="1469" cy="210" r="2.5"/>
<circle class="st0" cx="1469" cy="270" r="2.5"/>
<circle class="st0" cx="1469" cy="330" r="2.5"/>
<circle class="st0" cx="1469" cy="390" r="2.5"/>
<circle class="st0" cx="1469" cy="450" r="2.5"/>
<circle class="st0" cx="1469" cy="510" r="2.5"/>
<circle class="st0" cx="1469" cy="570" r="2.5"/>
<circle class="st0" cx="1469" cy="630" r="2.5"/>
<circle class="st0" cx="1469" cy="690" r="2.5"/>
<circle class="st0" cx="1469" cy="750" r="2.5"/>
<circle class="st0" cx="1469" cy="810" r="2.5"/>
<circle class="st0" cx="1469" cy="870" r="2.5"/>
<circle class="st0" cx="1469" cy="930" r="2.5"/>
<circle class="st0" cx="1529" cy="30" r="2.5"/>
<circle class="st0" cx="1529" cy="90" r="2.5"/>
<circle class="st0" cx="1529" cy="150" r="2.5"/>
<circle class="st0" cx="1529" cy="210" r="2.5"/>
<circle class="st0" cx="1529" cy="270" r="2.5"/>
<circle class="st0" cx="1529" cy="330" r="2.5"/>
<circle class="st0" cx="1529" cy="390" r="2.5"/>
<circle class="st0" cx="1529" cy="450" r="2.5"/>
<circle class="st0" cx="1529" cy="510" r="2.5"/>
<circle class="st0" cx="1529" cy="570" r="2.5"/>
<circle class="st0" cx="1529" cy="630" r="2.5"/>
<circle class="st0" cx="1529" cy="690" r="2.5"/>
<circle class="st0" cx="1529" cy="750" r="2.5"/>
<circle class="st0" cx="1529" cy="810" r="2.5"/>
<circle class="st0" cx="1529" cy="870" r="2.5"/>
<circle class="st0" cx="1529" cy="930" r="2.5"/>
<circle class="st0" cx="1589" cy="30" r="2.5"/>
<circle class="st0" cx="1589" cy="90" r="2.5"/>
<circle class="st0" cx="1589" cy="150" r="2.5"/>
<circle class="st0" cx="1589" cy="210" r="2.5"/>
<circle class="st0" cx="1589" cy="270" r="2.5"/>
<circle class="st0" cx="1589" cy="330" r="2.5"/>
<circle class="st0" cx="1589" cy="390" r="2.5"/>
<circle class="st0" cx="1589" cy="450" r="2.5"/>
<circle class="st0" cx="1589" cy="510" r="2.5"/>
<circle class="st0" cx="1589" cy="570" r="2.5"/>
<circle class="st0" cx="1589" cy="630" r="2.5"/>
<circle class="st0" cx="1589" cy="690" r="2.5"/>
<circle class="st0" cx="1589" cy="750" r="2.5"/>
<circle class="st0" cx="1589" cy="810" r="2.5"/>
<circle class="st0" cx="1589" cy="870" r="2.5"/>
<circle class="st0" cx="1589" cy="930" r="2.5"/>
<circle class="st0" cx="1649" cy="30" r="2.5"/>
<circle class="st0" cx="1649" cy="90" r="2.5"/>
<circle class="st0" cx="1649" cy="150" r="2.5"/>
<circle class="st0" cx="1649" cy="210" r="2.5"/>
<circle class="st0" cx="1649" cy="270" r="2.5"/>
<circle class="st0" cx="1649" cy="330" r="2.5"/>
<circle class="st0" cx="1649" cy="390" r="2.5"/>
<circle class="st0" cx="1649" cy="450" r="2.5"/>
<circle class="st0" cx="1649" cy="510" r="2.5"/>
<circle class="st0" cx="1649" cy="570" r="2.5"/>
<circle class="st0" cx="1649" cy="630" r="2.5"/>
<circle class="st0" cx="1649" cy="690" r="2.5"/>
<circle class="st0" cx="1649" cy="750" r="2.5"/>
<circle class="st0" cx="1649" cy="810" r="2.5"/>
<circle class="st0" cx="1649" cy="870" r="2.5"/>
<circle class="st0" cx="1649" cy="930" r="2.5"/>
<circle class="st0" cx="1709" cy="30" r="2.5"/>
<circle class="st0" cx="1709" cy="90" r="2.5"/>
<circle class="st0" cx="1709" cy="150" r="2.5"/>
<circle class="st0" cx="1709" cy="210" r="2.5"/>
<circle class="st0" cx="1709" cy="270" r="2.5"/>
<circle class="st0" cx="1709" cy="330" r="2.5"/>
<circle class="st0" cx="1709" cy="390" r="2.5"/>
<circle class="st0" cx="1709" cy="450" r="2.5"/>
<circle class="st0" cx="1709" cy="510" r="2.5"/>
<circle class="st0" cx="1709" cy="570" r="2.5"/>
<circle class="st0" cx="1709" cy="630" r="2.5"/>
<circle class="st0" cx="1709" cy="690" r="2.5"/>
<circle class="st0" cx="1709" cy="750" r="2.5"/>
<circle class="st0" cx="1709" cy="810" r="2.5"/>
<circle class="st0" cx="1709" cy="870" r="2.5"/>
<circle class="st0" cx="1709" cy="930" r="2.5"/>
<circle class="st0" cx="1769" cy="30" r="2.5"/>
<circle class="st0" cx="1769" cy="90" r="2.5"/>
<circle class="st0" cx="1769" cy="150" r="2.5"/>
<circle class="st0" cx="1769" cy="210" r="2.5"/>
<circle class="st0" cx="1769" cy="270" r="2.5"/>
<circle class="st0" cx="1769" cy="330" r="2.5"/>
<circle class="st0" cx="1769" cy="390" r="2.5"/>
<circle class="st0" cx="1769" cy="450" r="2.5"/>
<circle class="st0" cx="1769" cy="510" r="2.5"/>
<circle class="st0" cx="1769" cy="570" r="2.5"/>
<circle class="st0" cx="1769" cy="630" r="2.5"/>
<circle class="st0" cx="1769" cy="690" r="2.5"/>
<circle class="st0" cx="1769" cy="750" r="2.5"/>
<circle class="st0" cx="1769" cy="810" r="2.5"/>
<circle class="st0" cx="1769" cy="870" r="2.5"/>
<circle class="st0" cx="1769" cy="930" r="2.5"/>
<circle class="st0" cx="1829" cy="30" r="2.5"/>
<circle class="st0" cx="1829" cy="90" r="2.5"/>
<circle class="st0" cx="1829" cy="150" r="2.5"/>
<circle class="st0" cx="1829" cy="210" r="2.5"/>
<circle class="st0" cx="1829" cy="270" r="2.5"/>
<circle class="st0" cx="1829" cy="330" r="2.5"/>
<circle class="st0" cx="1829" cy="390" r="2.5"/>
<circle class="st0" cx="1829" cy="450" r="2.5"/>
<circle class="st0" cx="1829" cy="510" r="2.5"/>
<circle class="st0" cx="1829" cy="570" r="2.5"/>
<circle class="st0" cx="1829" cy="630" r="2.5"/>
<circle class="st0" cx="1829" cy="690" r="2.5"/>
<circle class="st0" cx="1829" cy="750" r="2.5"/>
<circle class="st0" cx="1829" cy="810" r="2.5"/>
<circle class="st0" cx="1829" cy="870" r="2.5"/>
<circle class="st0" cx="1829" cy="930" r="2.5"/>
<circle class="st0" cx="1889" cy="30" r="2.5"/>
<circle class="st0" cx="1889" cy="90" r="2.5"/>
<circle class="st0" cx="1889" cy="150" r="2.5"/>
<circle class="st0" cx="1889" cy="210" r="2.5"/>
<circle class="st0" cx="1889" cy="270" r="2.5"/>
<circle class="st0" cx="1889" cy="330" r="2.5"/>
<circle class="st0" cx="1889" cy="390" r="2.5"/>
<circle class="st0" cx="1889" cy="450" r="2.5"/>
<circle class="st0" cx="1889" cy="510" r="2.5"/>
<circle class="st0" cx="1889" cy="570" r="2.5"/>
<circle class="st0" cx="1889" cy="630" r="2.5"/>
<circle class="st0" cx="1889" cy="690" r="2.5"/>
<circle class="st0" cx="1889" cy="750" r="2.5"/>
<circle class="st0" cx="1889" cy="810" r="2.5"/>
<circle class="st0" cx="1889" cy="870" r="2.5"/>
<circle class="st0" cx="1889" cy="930" r="2.5"/>
</svg>
