<svg width="1442" height="901" viewBox="0 0 1442 901" fill="none" xmlns="http://www.w3.org/2000/svg">
<rect width="1440" height="900" fill="black" fill-opacity="0" transform="translate(1)"/>
<rect width="1440" height="700" fill="black" fill-opacity="0" transform="translate(1)"/>
<mask id="mask0" mask-type="alpha" maskUnits="userSpaceOnUse" x="1" y="0" width="1440" height="700">
<rect width="1440" height="700" fill="black" fill-opacity="0" transform="translate(1)"/>
<path d="M1.06745 700C99.7204 700 363.035 670.813 567.096 619.612C771.158 568.41 1020.89 563.599 1020.89 563.599C1020.89 563.599 1357.81 545.545 1441 481.91V0H1L1.06745 700Z" fill="#18213C"/>
</mask>
<g mask="url(#mask0)">
<rect width="1958" height="1709" fill="black" fill-opacity="0" transform="translate(-282 -738)"/>
<rect width="1958" height="1709" fill="black" fill-opacity="0" transform="translate(-282 -738)"/>
<rect width="1958" height="1709" fill="black" fill-opacity="0" transform="translate(-282 -738)"/>
<path d="M1676 -468.477H-282V853.487H1676V-468.477Z" fill="#17213B"/>
<g style="mix-blend-mode:overlay" opacity="0.3">
<rect width="1694.46" height="1709" fill="black" fill-opacity="0" transform="translate(-119.411 -738)"/>
<path style="mix-blend-mode:overlay" opacity="0.3" d="M756.143 1.54182L498.025 -256.512C475.04 -279.491 437.774 -279.491 414.789 -256.512L-25.6676 183.835C-48.6526 206.814 -48.6526 244.071 -25.6676 267.05L232.45 525.104C255.435 548.083 292.701 548.083 315.686 525.104L756.143 84.757C779.128 61.7778 779.128 24.5211 756.143 1.54182Z" fill="url(#paint0_linear)"/>
<path style="mix-blend-mode:overlay" opacity="0.3" d="M704.018 153.871L445.9 -104.182C422.915 -127.162 385.649 -127.162 362.664 -104.182L-77.7926 336.164C-100.778 359.144 -100.778 396.4 -77.7926 419.38L180.325 677.433C203.31 700.412 240.576 700.413 263.561 677.433L704.018 237.086C727.003 214.107 727.003 176.85 704.018 153.871Z" fill="url(#paint1_linear)"/>
<path style="mix-blend-mode:overlay" opacity="0.3" d="M1245.32 405.83L987.199 147.777C964.214 124.797 926.948 124.797 903.963 147.777L463.506 588.123C440.521 611.103 440.521 648.359 463.506 671.339L721.624 929.392C744.609 952.372 781.875 952.371 804.86 929.392L1245.32 489.045C1268.3 466.066 1268.3 428.809 1245.32 405.83Z" fill="url(#paint2_linear)"/>
<path style="mix-blend-mode:overlay" opacity="0.3" d="M1533.43 189.947L1275.31 -68.1063C1252.32 -91.0855 1215.06 -91.0855 1192.07 -68.1063L751.616 372.241C728.631 395.22 728.631 432.477 751.616 455.456L1009.73 713.509C1032.72 736.489 1069.99 736.489 1092.97 713.509L1533.43 273.163C1556.41 250.183 1556.41 212.927 1533.43 189.947Z" fill="url(#paint3_linear)"/>
</g>
</g>
<rect width="1440" height="256" fill="black" fill-opacity="0" transform="translate(1 535)"/>
<path d="M1441 535C1441 535 1176.41 613.657 1008.59 654.771C850.922 693.406 768.268 749.219 517.585 741.22C124.161 728.794 224.259 815.391 1 784.164" stroke="#EDEDED" stroke-miterlimit="10"/>
<rect width="1440" height="241" fill="black" fill-opacity="0" transform="translate(1 659)"/>
<path d="M1441 660.356C1441 660.356 1145.63 644.257 1010.17 723.014C874.703 801.771 693.175 802.156 605.852 805.145C518.529 808.133 75.44 838.595 1 900" stroke="#EDEDED" stroke-miterlimit="10"/>
<defs>
<linearGradient id="paint0_linear" x1="-42.8385" y1="134.301" x2="773.307" y2="134.301" gradientUnits="userSpaceOnUse">
<stop stop-color="white"/>
<stop offset="1"/>
</linearGradient>
<linearGradient id="paint1_linear" x1="573262" y1="1.31952e+06" x2="573262" y2="531352" gradientUnits="userSpaceOnUse">
<stop stop-color="white"/>
<stop offset="1"/>
</linearGradient>
<linearGradient id="paint2_linear" x1="702127" y1="1.48826e+06" x2="1.48821e+06" y2="1.48826e+06" gradientUnits="userSpaceOnUse">
<stop stop-color="white"/>
<stop offset="1"/>
</linearGradient>
<linearGradient id="paint3_linear" x1="979908" y1="1.16905e+06" x2="1.76599e+06" y2="1.16905e+06" gradientUnits="userSpaceOnUse">
<stop stop-color="white"/>
<stop offset="1"/>
</linearGradient>
</defs>
</svg>
