<svg width="465" height="93" viewBox="0 0 465 93" fill="none" xmlns="http://www.w3.org/2000/svg">
  <rect width="465" height="93" fill="black" fill-opacity="0"/>
  <rect width="465" height="93" fill="black" fill-opacity="0"/>
  <rect width="465" height="93" fill="black" fill-opacity="0"/>
  <rect width="465" height="93" fill="black" fill-opacity="0"/>
  <rect width="365" height="41" fill="black" fill-opacity="0" transform="translate(100 26)"/>
  <path
    d="M111.253 27C112.083 28.4489 112.912 29.8978 113.504 31.4675L116.229 37.2632L118.953 43.904L121.678 50.0619L124.284 43.904L127.008 37.2632L129.733 31.4675C130.325 29.8978 131.036 28.3282 131.983 27H139.92C140.275 29.4149 140.631 32.4334 140.868 35.6935C141.105 38.8328 141.46 42.3344 141.815 45.7152L142.408 56.2198C142.645 59.8421 142.763 62.9814 143 66H134.708C134.59 62.257 134.353 58.1517 134.116 53.5635C133.879 49.2167 133.76 44.7492 133.405 40.0402L131.154 45.3529L128.785 51.1486C127.837 53.0805 127.127 54.8916 126.416 56.582L124.521 61.0495H118.479L116.584 56.582C115.873 54.8916 115.163 52.9598 114.215 51.1486L111.846 45.3529L109.595 40.0402C109.24 44.7492 109.003 49.2167 108.884 53.5635C108.647 57.9102 108.529 62.257 108.292 66H100C100.237 62.9814 100.237 59.8421 100.592 56.2198L101.185 45.7152C101.421 42.3344 101.777 38.9536 102.132 35.6935C102.488 32.5542 102.725 29.5356 103.08 27H111.253Z"
    fill="#1B243F"/>
  <path d="M162 27H171V66H162V27Z" fill="#1B243F"/>
  <path
    d="M216.759 66C214.385 61.6533 211.536 57.1858 208.806 52.839C206.076 48.4923 202.752 44.387 199.547 40.4025V66H191V27.1207H198.004C199.428 28.5697 200.853 30.0186 202.04 31.5882C203.464 33.2786 205.007 35.3313 206.432 37.3839L211.061 43.5418L215.335 49.9412V27H224V66H216.759Z"
    fill="#1B243F"/>
  <path d="M273 27.1207V34.4861H261.299V66H252.582V34.3653H241V27H273V27.1207Z" fill="#1B243F"/>
  <path d="M290 66V27H316V34.3882H298.866V42.5031H314.203V50.0124H298.866V66H290Z" fill="#1B243F"/>
  <path
    d="M370 46.3787C370 49.4112 369.526 52.4438 368.577 55.2337C367.628 57.6598 366.205 59.8432 364.545 61.6627C362.766 63.3609 360.75 64.8166 358.497 65.6657C356.007 66.5148 353.516 67 350.907 67C348.417 67 345.927 66.5148 343.555 65.6657C341.302 64.8166 339.167 63.4823 337.507 61.6627C335.61 59.9645 334.186 57.6598 333.475 55.2337C332.408 52.4438 331.815 49.4112 332.052 46.3787C331.933 43.3462 332.408 40.3136 333.475 37.5237C334.542 35.0976 335.965 32.9142 337.744 31.0947C339.404 29.3964 341.539 28.0621 343.792 27.3343C346.045 26.3639 348.536 26 351.026 26C353.516 26 356.007 26.3639 358.378 27.3343C360.632 28.0621 362.766 29.3964 364.426 31.0947C366.205 32.9142 367.628 35.0976 368.458 37.5237C369.407 40.3136 370 43.3462 370 46.3787ZM340.59 46.3787C340.472 48.1982 340.827 50.0178 341.302 51.716C341.658 53.1716 342.369 54.5059 343.199 55.7189C344.148 56.8107 345.215 57.7811 346.52 58.3876C347.824 58.9941 349.247 59.358 350.789 59.358C352.212 59.358 353.753 58.9941 355.058 58.3876C356.362 57.7811 357.548 56.932 358.378 55.7189C359.209 54.5059 359.92 53.1716 360.394 51.716C360.75 50.0178 360.987 48.1982 360.987 46.3787C360.987 44.6805 360.869 42.9822 360.394 41.284C359.92 39.8284 359.209 38.3728 358.378 37.1598C357.43 36.068 356.362 35.2189 355.058 34.7337C353.753 34.0059 352.33 33.642 350.789 33.7633C349.366 33.642 347.824 34.0059 346.52 34.7337C345.215 35.3402 344.029 36.1893 343.199 37.4024C342.369 38.6154 341.658 39.9497 341.302 41.4053C340.827 42.9822 340.59 44.6805 340.59 46.3787Z"
    fill="#1B243F"/>
  <path
    d="M399.429 26C405.444 26 409.895 27.0734 412.902 29.1009C416.15 31.2477 417.955 34.945 417.594 38.7615C417.714 41.0275 417.113 43.4128 415.669 45.3211C414.226 47.1101 412.301 48.5413 410.256 49.3761L412.662 52.4771L415.308 56.4128L417.714 60.7064L420 65H410.015L407.97 61.3028L405.684 57.367L403.398 54.0275C402.677 52.9541 401.835 52 400.992 51.0459H396.662V65H388V27.0734L393.774 26.1193L399.429 26ZM399.91 33.3945H396.782V43.7706H399.429C401.835 43.8899 404.12 43.5321 406.406 42.6972C407.85 41.7431 408.812 40.1927 408.692 38.4037C408.812 36.7339 407.85 35.1835 406.406 34.3486C404.361 33.5138 402.075 33.2752 399.91 33.3945Z"
    fill="#1B243F"/>
  <path d="M465 27.1207V34.4861H453.298V66H444.582V34.3653H433V27H465V27.1207Z" fill="#1B243F"/>
  <path
    d="M66 20.0928C66 18.6267 65.2032 17.2938 63.8752 16.4941L34.9255 0.499821C33.7304 -0.166607 32.1368 -0.166607 30.9417 0.499821L2.12475 16.3608C0.796787 17.0272 0 18.3601 0 19.8262V20.2261L2.12475 67.9423C2.12475 69.4085 2.92152 70.608 4.11669 71.2745L26.5594 84.603V93L43.0261 82.737L62.0161 71.541C63.2113 70.8746 64.008 69.5417 64.008 68.2089L66 20.4927C66 20.4927 66 20.2261 66 20.0928ZM32.9336 8.89681L53.3843 20.2261L33.1992 31.2888L12.7485 20.0928L32.9336 8.89681ZM28.9497 76.6059L10.2254 65.4099L9.69417 52.4812L28.9497 63.6772V76.6059ZM9.16298 42.7513L8.49899 27.2902L28.9497 38.6195V54.2139L9.16298 42.7513ZM55.7746 65.6765L37.1831 76.6059V63.6772L56.3058 52.6145L55.7746 65.6765ZM37.1831 54.2139V38.4862L57.3682 27.4235L56.7042 42.8846L37.1831 54.2139Z"
    fill="#19DBB6"/>
</svg>
