<svg width="66" height="93" viewBox="0 0 66 93" fill="none" xmlns="http://www.w3.org/2000/svg">
  <path
    d="M66 20.0928C66 18.6267 65.2032 17.2938 63.8752 16.4941L34.9255 0.499821C33.7304 -0.166607 32.1368 -0.166607 30.9417 0.499821L2.12475 16.3608C0.796787 17.0272 0 18.3601 0 19.8262V20.2261L2.12475 67.9423C2.12475 69.4085 2.92152 70.608 4.11669 71.2745L26.5594 84.603V93L43.0261 82.737L62.0161 71.541C63.2113 70.8746 64.008 69.5417 64.008 68.2089L66 20.4927C66 20.4927 66 20.2261 66 20.0928ZM32.9336 8.89681L53.3843 20.2261L33.1992 31.2888L12.7485 20.0928L32.9336 8.89681ZM28.9497 76.6059L10.2254 65.4099L9.69417 52.4812L28.9497 63.6772V76.6059ZM9.16298 42.7513L8.49899 27.2902L28.9497 38.6195V54.2139L9.16298 42.7513ZM55.7746 65.6765L37.1831 76.6059V63.6772L56.3058 52.6145L55.7746 65.6765ZM37.1831 54.2139V38.4862L57.3682 27.4235L56.7042 42.8846L37.1831 54.2139Z"
    fill="#19DBB6"/>
</svg>
